<?xml version="1.0" standalone="no"?>
<!DOCTYPE svg PUBLIC "-//W3C//DTD SVG 20010904//EN"
 "http://www.w3.org/TR/2001/REC-SVG-20010904/DTD/svg10.dtd">
<svg version="1.0" xmlns="http://www.w3.org/2000/svg"
 width="452.000000pt" height="513.000000pt" viewBox="0 0 452.000000 513.000000"
 preserveAspectRatio="xMidYMid meet">

<g transform="translate(0.000000,513.000000) scale(0.100000,-0.100000)"
fill="#000000" stroke="none">
<path d="M446 5100 c-55 -17 -88 -63 -100 -137 -5 -38 -4 -43 13 -43 14 0 20
10 25 38 3 22 15 51 26 65 46 58 154 54 190 -6 19 -30 20 -54 20 -489 0 -314
-3 -465 -11 -481 -23 -51 -96 -62 -128 -21 -20 26 -21 38 -21 373 0 190 4 352
9 359 5 8 21 12 37 10 l29 -3 3 -236 c2 -195 5 -239 17 -249 12 -10 18 -10 30
0 21 18 22 444 1 495 -27 64 -106 77 -150 24 l-26 -31 0 -366 c0 -346 1 -369
20 -399 50 -83 169 -81 220 3 21 32 21 43 18 506 -3 524 -3 522 -68 568 -36
26 -107 35 -154 20z"/>
<path d="M3680 3720 l0 -1095 -80 -80 c-45 -44 -102 -110 -127 -147 -41 -60
-47 -75 -48 -124 -1 -52 -5 -61 -55 -125 -88 -112 -171 -213 -185 -224 -19
-15 -333 -402 -382 -471 -23 -32 -57 -75 -74 -94 -39 -42 -129 -156 -129 -163
0 -4 -79 -126 -98 -152 -12 -17 -80 -168 -95 -213 -8 -23 -11 -42 -6 -42 15 0
-3 -32 -25 -41 -21 -9 -21 -10 1 -5 16 3 24 -2 29 -18 3 -11 16 -31 27 -43 61
-68 213 13 432 228 88 87 128 119 150 122 17 2 -9 5 -57 6 -48 0 -89 4 -91 8
-3 5 23 38 57 76 l61 67 105 7 c58 4 95 9 82 12 -22 6 -21 9 28 63 38 42 59
58 83 61 17 2 -7 5 -54 5 -47 1 -89 5 -92 8 -4 4 19 37 51 74 l57 67 64 6 c44
5 70 3 80 -5 9 -7 13 -9 9 -4 -4 4 52 75 124 158 71 82 136 162 144 176 12 23
14 -61 14 -620 0 -635 0 -648 -20 -668 -20 -20 -34 -20 -1778 -21 -966 0
-1751 -3 -1744 -6 6 -2 12 -10 12 -17 0 -7 9 -21 21 -32 18 -16 40 -20 145
-23 l124 -3 0 -39 0 -39 1623 0 c1526 0 1624 1 1656 17 19 10 44 31 55 46 21
28 21 40 26 775 5 721 6 748 25 789 11 23 65 95 120 159 55 64 103 126 107
138 3 12 6 -457 7 -1041 1 -1050 1 -1063 -19 -1083 -20 -20 -34 -20 -1777 -21
-967 0 -1752 -3 -1745 -6 6 -2 12 -10 12 -17 0 -7 9 -21 21 -32 21 -19 66 -19
1733 -22 1231 -2 1722 0 1749 8 71 21 67 -47 67 1172 0 1195 -1 1166 59 1290
17 35 60 99 96 143 36 44 72 92 80 106 18 33 17 154 -1 190 -19 39 -78 87
-121 98 -52 15 -53 15 -88 -19 l-30 -29 0 682 c0 630 -1 684 -17 712 -17 29
-18 -1 -18 -707 0 -444 -4 -739 -9 -743 -5 -3 -12 -1 -16 5 -12 19 -23 10 -85
-62 -34 -40 -82 -90 -106 -111 l-43 -38 -1 886 c0 486 -3 891 -6 900 -4 10
-19 15 -43 15 l-36 0 -1 103 c0 76 -4 109 -17 132 -16 28 -17 -32 -17 -1065z
m210 -953 c0 -2 -17 -19 -37 -38 l-38 -34 34 38 c33 34 41 42 41 34z m-211
-219 c-3 -2 -36 -32 -74 -68 l-70 -65 69 72 c39 40 72 70 75 68 2 -3 2 -6 0
-7z"/>
<path d="M2838 3808 c-55 -14 -111 -68 -135 -130 -38 -98 -12 -236 62 -333 19
-24 35 -58 37 -76 6 -66 94 -94 171 -55 35 17 43 27 47 56 3 19 22 60 42 91
103 157 86 352 -36 424 -49 29 -127 38 -188 23z"/>
<path d="M2704 3190 c-74 -32 -173 -100 -194 -134 -26 -43 -26 -105 0 -139 11
-14 46 -36 78 -49 54 -22 69 -23 307 -23 219 0 258 2 314 19 143 44 163 146
49 239 -46 37 -158 97 -182 97 -13 0 -28 -39 -52 -135 -12 -45 -47 -135 -52
-131 -2 3 -15 36 -27 73 l-23 68 25 23 25 23 -23 25 c-27 29 -60 31 -82 6 -22
-24 -21 -31 4 -59 21 -21 21 -24 6 -65 -8 -24 -18 -56 -21 -71 -4 -15 -11 -25
-16 -22 -10 6 -63 171 -75 232 -4 18 -10 35 -13 37 -4 2 -26 -5 -48 -14z"/>
<path d="M3403 2285 c0 -22 2 -30 4 -17 2 12 2 30 0 40 -3 9 -5 -1 -4 -23z"/>
</g>
</svg>
